<?xml version="1.0" encoding="utf-8"?>
<!-- Generator: Adobe Illustrator 24.2.3, SVG Export Plug-In . SVG Version: 6.00 Build 0)  -->
<svg version="1.1" id="Layer_1" xmlns="http://www.w3.org/2000/svg" xmlns:xlink="http://www.w3.org/1999/xlink" x="0px" y="0px"
	 viewBox="0 0 1279.09 1279.09" style="enable-background:new 0 0 1279.09 1279.09;" xml:space="preserve">
<style type="text/css">
	.st0{fill:url(#SVGID_1_);}
	.st1{fill:url(#SVGID_2_);}
	.st2{fill:url(#SVGID_3_);}
	.st3{fill:url(#SVGID_4_);}
	.st4{fill:url(#SVGID_5_);}
	.st5{fill:url(#SVGID_6_);}
	.st6{fill:url(#SVGID_7_);}
	.st7{fill:url(#SVGID_8_);}
	.st8{fill:url(#SVGID_9_);}
	.st9{fill:url(#SVGID_10_);}
	.st10{fill:url(#SVGID_11_);}
	.st11{fill:url(#SVGID_12_);}
	.st12{fill:url(#SVGID_13_);}
	.st13{fill:url(#SVGID_14_);}
	.st14{fill:url(#SVGID_15_);}
	.st15{fill:url(#SVGID_16_);}
	.st16{fill:url(#SVGID_17_);}
	.st17{fill:url(#SVGID_18_);}
	.st18{fill:url(#SVGID_19_);}
	.st19{fill:url(#SVGID_20_);}
	.st20{fill:url(#SVGID_21_);}
	.st21{fill:url(#SVGID_22_);}
	.st22{fill:url(#SVGID_23_);}
	.st23{fill:url(#SVGID_24_);}
	.st24{fill:url(#SVGID_25_);}
	.st25{fill:url(#SVGID_26_);}
	.st26{fill:url(#SVGID_27_);}
	.st27{fill:url(#SVGID_28_);}
	.st28{fill:url(#SVGID_29_);}
	.st29{fill:url(#SVGID_30_);}
	.st30{fill:url(#SVGID_31_);}
	.st31{fill:url(#SVGID_32_);}
	.st32{fill:url(#SVGID_33_);}
	.st33{fill:url(#SVGID_34_);}
	.st34{fill:url(#SVGID_35_);}
	.st35{fill:url(#SVGID_36_);}
	.st36{fill:url(#SVGID_37_);}
	.st37{fill:url(#SVGID_38_);}
	.st38{fill:url(#SVGID_39_);}
	.st39{fill:url(#SVGID_40_);}
	.st40{fill:url(#SVGID_41_);}
	.st41{fill:url(#SVGID_42_);}
	.st42{fill:url(#SVGID_43_);}
	.st43{fill:url(#SVGID_44_);}
	.st44{fill:url(#SVGID_45_);}
	.st45{fill:url(#SVGID_46_);}
	.st46{fill:url(#SVGID_47_);}
	.st47{fill:url(#SVGID_48_);}
	.st48{fill:url(#SVGID_49_);}
	.st49{fill:url(#SVGID_50_);}
	.st50{fill:url(#SVGID_51_);}
	.st51{fill:url(#SVGID_52_);}
	.st52{fill:url(#SVGID_53_);}
	.st53{fill-rule:evenodd;clip-rule:evenodd;fill:url(#SVGID_54_);}
	.st54{fill-rule:evenodd;clip-rule:evenodd;fill:url(#SVGID_55_);}
	.st55{fill-rule:evenodd;clip-rule:evenodd;fill:url(#SVGID_56_);}
	.st56{fill-rule:evenodd;clip-rule:evenodd;fill:url(#SVGID_57_);}
	.st57{fill-rule:evenodd;clip-rule:evenodd;fill:url(#SVGID_58_);}
	.st58{fill-rule:evenodd;clip-rule:evenodd;fill:url(#SVGID_59_);}
	.st59{fill:url(#SVGID_60_);}
	.st60{fill:url(#SVGID_61_);}
	.st61{fill:url(#SVGID_62_);}
	.st62{fill:url(#SVGID_63_);}
	.st63{fill:url(#SVGID_64_);}
	.st64{fill:url(#SVGID_65_);}
	.st65{fill:url(#SVGID_66_);}
	.st66{fill:url(#SVGID_67_);}
	.st67{fill:url(#SVGID_68_);}
	.st68{fill-rule:evenodd;clip-rule:evenodd;fill:url(#SVGID_69_);}
	.st69{fill-rule:evenodd;clip-rule:evenodd;fill:url(#SVGID_70_);}
	.st70{fill-rule:evenodd;clip-rule:evenodd;fill:url(#SVGID_71_);}
	.st71{fill-rule:evenodd;clip-rule:evenodd;fill:url(#SVGID_72_);}
	.st72{fill-rule:evenodd;clip-rule:evenodd;fill:url(#SVGID_73_);}
	.st73{fill-rule:evenodd;clip-rule:evenodd;fill:url(#SVGID_74_);}
	.st74{fill:url(#SVGID_75_);}
	.st75{fill:url(#SVGID_76_);}
	.st76{fill:url(#SVGID_77_);}
	.st77{fill:url(#SVGID_78_);}
	.st78{fill:url(#SVGID_79_);}
	.st79{fill:url(#SVGID_80_);}
	.st80{fill:url(#SVGID_81_);}
	.st81{fill:url(#SVGID_82_);}
	.st82{fill:url(#SVGID_83_);}
	.st83{fill-rule:evenodd;clip-rule:evenodd;fill:url(#SVGID_84_);}
	.st84{fill-rule:evenodd;clip-rule:evenodd;fill:url(#SVGID_85_);}
	.st85{fill-rule:evenodd;clip-rule:evenodd;fill:url(#SVGID_86_);}
	.st86{fill-rule:evenodd;clip-rule:evenodd;fill:url(#SVGID_87_);}
	.st87{fill-rule:evenodd;clip-rule:evenodd;fill:url(#SVGID_88_);}
	.st88{fill-rule:evenodd;clip-rule:evenodd;fill:url(#SVGID_89_);}
	.st89{fill:#FFFFFF;}
	.st90{fill-rule:evenodd;clip-rule:evenodd;fill:#FFFFFF;}
</style>
<linearGradient id="SVGID_1_" gradientUnits="userSpaceOnUse" x1="0" y1="639.5449" x2="1279.0898" y2="639.5449">
	<stop  offset="0" style="stop-color:#8C1B13"/>
	<stop  offset="1" style="stop-color:#C2322A"/>
</linearGradient>
<path class="st0" d="M1219.7,1279.09H59.39c-32.8,0-59.39-26.59-59.39-59.39V59.39C0,26.59,26.59,0,59.39,0H1219.7
	c32.8,0,59.39,26.59,59.39,59.39V1219.7C1279.09,1252.5,1252.5,1279.09,1219.7,1279.09z"/>
<g>
	<rect x="294.79" y="588" class="st89" width="177.85" height="21.09"/>
	<path class="st89" d="M271.7,609.09c5.82,0,10.54-4.72,10.54-10.55S277.53,588,271.7,588c-5.82,0-10.55,4.72-10.55,10.55
		S265.88,609.09,271.7,609.09z"/>
	<path class="st89" d="M242.57,629.11c-5.82,0-10.55,4.72-10.55,10.55c0,5.82,4.72,10.54,10.55,10.54c5.82,0,10.55-4.72,10.55-10.54
		C253.12,633.83,248.4,629.11,242.57,629.11z"/>
	<path class="st89" d="M245.76,711.34c-5.82,0-10.54,4.72-10.54,10.55c0,5.82,4.72,10.55,10.54,10.55c5.82,0,10.55-4.72,10.55-10.55
		C256.3,716.06,251.58,711.34,245.76,711.34z"/>
	<path class="st89" d="M267.52,752.45c-5.82,0-10.54,4.72-10.54,10.55c0,5.82,4.72,10.55,10.54,10.55c5.82,0,10.55-4.72,10.55-10.55
		C278.06,757.18,273.34,752.45,267.52,752.45z"/>
	<rect x="266.8" y="629.11" class="st89" width="184.69" height="21.09"/>
	<rect x="322.63" y="670.23" class="st89" width="109.45" height="21.09"/>
	<rect x="266.57" y="711.34" class="st89" width="147.64" height="21.09"/>
	<rect x="285.19" y="752.45" class="st89" width="106.6" height="21.09"/>
	<g>
		<path class="st90" d="M911.09,387.95c-139.59-42.77-209.38-64.15-209.38-64.15c9.62-48.65,55.9-81.05,104.9-73.44
			c49.01,7.6,83.29,52.5,77.72,101.78c25.19,9.18,37.79,13.78,37.79,13.78c4.52,1.61,7.7,5.68,8.19,10.45
			c0.48,4.77-1.83,9.39-5.94,11.87C920.26,390.71,915.09,390.6,911.09,387.95z"/>
		<path class="st90" d="M870.16,392.28c-21.96,33.53-63.5,48.39-101.75,36.41c-38.24-11.98-63.88-47.91-62.77-87.97
			C815.32,375.1,870.16,392.28,870.16,392.28z"/>
		<path class="st90" d="M801.29,986.58c0,0-11.55-47.23-34.64-141.68c0,0-57.37-31.16-169.5-97.91
			c2.62-4.43-29.39,49.62-93.41,157.73c0,0-64.02-0.52-192.06-1.58c-20.36-7.57-33.18-27.78-31.35-49.43
			c1.84-21.64,17.87-39.41,39.22-43.45l93.71-2.76h30.24l85.36-203.47l61.45-122.01c0,0-15.22,0-45.66,0
			c0,0-34.9,25.98-104.69,77.93c-17.73,6.58-37.65,2.69-51.59-10.09c-13.94-12.78-19.55-32.28-14.53-50.52
			c0,0,48.8-35.68,146.41-107.05c76.62-2.1,114.92-3.15,114.92-3.15c126.66,40.13,175.46,97.33,146.41,171.6l-0.86,1.58h112.81
			c17.23,0,31.32,14.1,31.32,31.32V616c0,17.23-14.09,31.32-31.32,31.32H734.72c-84.1-11.52-104.15-52.13-60.14-121.85
			c-73.3,100.13-6.6,127.59,54.09,133.04l-13.96,25.79c76.62,47.23,114.92,70.84,114.92,70.84c34.29,26.35,54.4,164.55,67.7,215.68
			c-0.91,23.58-18.3,43.27-41.59,47.09C832.45,1021.74,809.68,1008.64,801.29,986.58L801.29,986.58z M734.72,647.33
			c-1.77-0.08-1.88,0.95-1.31,2.43L734.72,647.33z"/>
		<path class="st90" d="M816.25,496.98l87.28,0.24l0.43,12.24l15.05-0.47l-0.41-11.73l85.75,0.23l8.69,199.43H816.25v-32.63h77.3
			c26.59,0,48.28-21.69,48.28-48.28v-22.37c0-26.59-21.69-48.28-48.28-48.28h-77.3V496.98z"/>
		<polygon class="st90" points="1037.88,452.83 1008.24,492.32 1009.31,492.32 1017.86,688.45 1039.06,651.19 		"/>
		<path class="st90" d="M887.93,456.37l-62.57,35.46l78.09,0.21l33.19-36.71L887.93,456.37L887.93,456.37z M920.77,492.08
			l31.81-37.24l80.35-1.89l-29.55,39.36L920.77,492.08z"/>
	</g>
</g>
</svg>
