<?xml version="1.0" encoding="utf-8"?>
<!-- Generator: Adobe Illustrator 24.2.3, SVG Export Plug-In . SVG Version: 6.00 Build 0)  -->
<svg version="1.1" id="Layer_1" xmlns="http://www.w3.org/2000/svg" xmlns:xlink="http://www.w3.org/1999/xlink" x="0px" y="0px"
	 viewBox="0 0 3062.12 906.34" style="enable-background:new 0 0 3062.12 906.34;" xml:space="preserve">
<style type="text/css">
	.st0{fill:url(#SVGID_1_);}
	.st1{fill:url(#SVGID_2_);}
	.st2{fill:url(#SVGID_3_);}
	.st3{fill:url(#SVGID_4_);}
	.st4{fill:url(#SVGID_5_);}
	.st5{fill:url(#SVGID_6_);}
	.st6{fill:url(#SVGID_7_);}
	.st7{fill:url(#SVGID_8_);}
	.st8{fill:url(#SVGID_9_);}
	.st9{fill:url(#SVGID_10_);}
	.st10{fill:url(#SVGID_11_);}
	.st11{fill:url(#SVGID_12_);}
	.st12{fill:url(#SVGID_13_);}
	.st13{fill:url(#SVGID_14_);}
	.st14{fill:url(#SVGID_15_);}
	.st15{fill:url(#SVGID_16_);}
	.st16{fill:url(#SVGID_17_);}
	.st17{fill:url(#SVGID_18_);}
	.st18{fill:url(#SVGID_19_);}
	.st19{fill:url(#SVGID_20_);}
	.st20{fill:url(#SVGID_21_);}
	.st21{fill:url(#SVGID_22_);}
	.st22{fill:url(#SVGID_23_);}
	.st23{fill:url(#SVGID_24_);}
	.st24{fill:url(#SVGID_25_);}
	.st25{fill:url(#SVGID_26_);}
	.st26{fill:url(#SVGID_27_);}
	.st27{fill:url(#SVGID_28_);}
	.st28{fill:url(#SVGID_29_);}
	.st29{fill:url(#SVGID_30_);}
	.st30{fill:url(#SVGID_31_);}
	.st31{fill:url(#SVGID_32_);}
	.st32{fill:url(#SVGID_33_);}
	.st33{fill:url(#SVGID_34_);}
	.st34{fill:url(#SVGID_35_);}
	.st35{fill:url(#SVGID_36_);}
	.st36{fill:url(#SVGID_37_);}
	.st37{fill:url(#SVGID_38_);}
	.st38{fill:url(#SVGID_39_);}
	.st39{fill:url(#SVGID_40_);}
	.st40{fill:url(#SVGID_41_);}
	.st41{fill:url(#SVGID_42_);}
	.st42{fill:url(#SVGID_43_);}
	.st43{fill:url(#SVGID_44_);}
	.st44{fill:url(#SVGID_45_);}
	.st45{fill:url(#SVGID_46_);}
	.st46{fill:url(#SVGID_47_);}
	.st47{fill:url(#SVGID_48_);}
	.st48{fill:url(#SVGID_49_);}
	.st49{fill:url(#SVGID_50_);}
	.st50{fill:url(#SVGID_51_);}
	.st51{fill:url(#SVGID_52_);}
	.st52{fill:url(#SVGID_53_);}
	.st53{fill-rule:evenodd;clip-rule:evenodd;fill:url(#SVGID_54_);}
	.st54{fill-rule:evenodd;clip-rule:evenodd;fill:url(#SVGID_55_);}
	.st55{fill-rule:evenodd;clip-rule:evenodd;fill:url(#SVGID_56_);}
	.st56{fill-rule:evenodd;clip-rule:evenodd;fill:url(#SVGID_57_);}
	.st57{fill-rule:evenodd;clip-rule:evenodd;fill:url(#SVGID_58_);}
	.st58{fill-rule:evenodd;clip-rule:evenodd;fill:url(#SVGID_59_);}
	.st59{fill:url(#SVGID_60_);}
	.st60{fill:url(#SVGID_61_);}
	.st61{fill:url(#SVGID_62_);}
	.st62{fill:url(#SVGID_63_);}
	.st63{fill:url(#SVGID_64_);}
	.st64{fill:url(#SVGID_65_);}
	.st65{fill:url(#SVGID_66_);}
	.st66{fill:url(#SVGID_67_);}
	.st67{fill:url(#SVGID_68_);}
	.st68{fill-rule:evenodd;clip-rule:evenodd;fill:url(#SVGID_69_);}
	.st69{fill-rule:evenodd;clip-rule:evenodd;fill:url(#SVGID_70_);}
	.st70{fill-rule:evenodd;clip-rule:evenodd;fill:url(#SVGID_71_);}
	.st71{fill-rule:evenodd;clip-rule:evenodd;fill:url(#SVGID_72_);}
	.st72{fill-rule:evenodd;clip-rule:evenodd;fill:url(#SVGID_73_);}
	.st73{fill-rule:evenodd;clip-rule:evenodd;fill:url(#SVGID_74_);}
	.st74{fill:url(#SVGID_75_);}
	.st75{fill:url(#SVGID_76_);}
	.st76{fill:url(#SVGID_77_);}
	.st77{fill:url(#SVGID_78_);}
	.st78{fill:url(#SVGID_79_);}
	.st79{fill:url(#SVGID_80_);}
	.st80{fill:url(#SVGID_81_);}
	.st81{fill:url(#SVGID_82_);}
	.st82{fill:url(#SVGID_83_);}
	.st83{fill-rule:evenodd;clip-rule:evenodd;fill:url(#SVGID_84_);}
	.st84{fill-rule:evenodd;clip-rule:evenodd;fill:url(#SVGID_85_);}
	.st85{fill-rule:evenodd;clip-rule:evenodd;fill:url(#SVGID_86_);}
	.st86{fill-rule:evenodd;clip-rule:evenodd;fill:url(#SVGID_87_);}
	.st87{fill-rule:evenodd;clip-rule:evenodd;fill:url(#SVGID_88_);}
	.st88{fill-rule:evenodd;clip-rule:evenodd;fill:url(#SVGID_89_);}
	.st89{fill:#FFFFFF;}
	.st90{fill-rule:evenodd;clip-rule:evenodd;fill:#FFFFFF;}
</style>
<linearGradient id="SVGID_1_" gradientUnits="userSpaceOnUse" x1="1331.1835" y1="283.4035" x2="1454.8247" y2="283.4035">
	<stop  offset="0" style="stop-color:#8C1B13"/>
	<stop  offset="1" style="stop-color:#C2322A"/>
</linearGradient>
<polygon class="st0" points="1354.73,234.09 1454.82,234.09 1432.01,332.71 1331.18,332.71 "/>
<linearGradient id="SVGID_2_" gradientUnits="userSpaceOnUse" x1="1249.3767" y1="499.0946" x2="1427.7244" y2="499.0946">
	<stop  offset="0" style="stop-color:#8C1B13"/>
	<stop  offset="1" style="stop-color:#C2322A"/>
</linearGradient>
<polygon class="st1" points="1327.63,350.55 1427.72,350.55 1350.2,647.64 1249.38,647.64 "/>
<linearGradient id="SVGID_3_" gradientUnits="userSpaceOnUse" x1="1472.1484" y1="500.8399" x2="1647.9766" y2="500.8399">
	<stop  offset="0" style="stop-color:#8C1B13"/>
	<stop  offset="1" style="stop-color:#C2322A"/>
</linearGradient>
<polygon class="st2" points="1472.15,403.59 1558.23,352.52 1647.98,648.8 1544.21,649.16 "/>
<linearGradient id="SVGID_4_" gradientUnits="userSpaceOnUse" x1="1379.887" y1="501.0572" x2="1558.2347" y2="501.0572">
	<stop  offset="0" style="stop-color:#8C1B13"/>
	<stop  offset="1" style="stop-color:#C2322A"/>
</linearGradient>
<polygon class="st3" points="1458.14,352.52 1558.23,352.52 1480.71,649.6 1379.89,649.6 "/>
<linearGradient id="SVGID_5_" gradientUnits="userSpaceOnUse" x1="1638.9735" y1="548.7386" x2="1832.9553" y2="548.7386">
	<stop  offset="0" style="stop-color:#8C1B13"/>
	<stop  offset="1" style="stop-color:#C2322A"/>
</linearGradient>
<polygon class="st4" points="1638.97,403.59 1725.05,352.52 1832.96,744.96 1730.41,744.47 "/>
<linearGradient id="SVGID_6_" gradientUnits="userSpaceOnUse" x1="1909.3541" y1="501.0572" x2="2085.1824" y2="501.0572">
	<stop  offset="0" style="stop-color:#8C1B13"/>
	<stop  offset="1" style="stop-color:#C2322A"/>
</linearGradient>
<polygon class="st5" points="1909.35,401.94 1996.87,352.52 2085.18,649.6 1981.41,649.6 "/>
<linearGradient id="SVGID_7_" gradientUnits="userSpaceOnUse" x1="1818.5194" y1="501.0572" x2="1996.8671" y2="501.0572">
	<stop  offset="0" style="stop-color:#8C1B13"/>
	<stop  offset="1" style="stop-color:#C2322A"/>
</linearGradient>
<polygon class="st6" points="1896.78,352.52 1996.87,352.52 1919.35,649.6 1818.52,649.6 "/>
<linearGradient id="SVGID_8_" gradientUnits="userSpaceOnUse" x1="1546.7047" y1="501.0572" x2="1725.0524" y2="501.0572">
	<stop  offset="0" style="stop-color:#8C1B13"/>
	<stop  offset="1" style="stop-color:#C2322A"/>
</linearGradient>
<polygon class="st7" points="1624.96,352.52 1725.05,352.52 1647.53,649.6 1546.7,649.6 "/>
<linearGradient id="SVGID_9_" gradientUnits="userSpaceOnUse" x1="2184.1128" y1="501.0572" x2="2358.9595" y2="501.0572">
	<stop  offset="0" style="stop-color:#8C1B13"/>
	<stop  offset="1" style="stop-color:#C2322A"/>
</linearGradient>
<polygon class="st8" points="2184.11,403.9 2269.66,352.52 2358.96,649.6 2258.13,649.6 "/>
<linearGradient id="SVGID_10_" gradientUnits="userSpaceOnUse" x1="2352.8931" y1="548.8947" x2="2546.8748" y2="548.8947">
	<stop  offset="0" style="stop-color:#8C1B13"/>
	<stop  offset="1" style="stop-color:#C2322A"/>
</linearGradient>
<polygon class="st9" points="2352.89,403.9 2436.48,352.52 2546.87,745.27 2444.33,744.78 "/>
<linearGradient id="SVGID_11_" gradientUnits="userSpaceOnUse" x1="2091.3154" y1="501.0572" x2="2269.6631" y2="501.0572">
	<stop  offset="0" style="stop-color:#8C1B13"/>
	<stop  offset="1" style="stop-color:#C2322A"/>
</linearGradient>
<polygon class="st10" points="2169.57,352.52 2269.66,352.52 2192.14,649.6 2091.32,649.6 "/>
<linearGradient id="SVGID_12_" gradientUnits="userSpaceOnUse" x1="2258.1331" y1="501.0572" x2="2436.4807" y2="501.0572">
	<stop  offset="0" style="stop-color:#8C1B13"/>
	<stop  offset="1" style="stop-color:#C2322A"/>
</linearGradient>
<polygon class="st11" points="2336.39,352.52 2436.48,352.52 2358.96,649.6 2258.13,649.6 "/>
<linearGradient id="SVGID_13_" gradientUnits="userSpaceOnUse" x1="885.9059" y1="559.4213" x2="1288.8732" y2="559.4213">
	<stop  offset="0" style="stop-color:#8C1B13"/>
	<stop  offset="1" style="stop-color:#C2322A"/>
</linearGradient>
<path class="st12" d="M1187.8,351.29h101.07l-78.5,302.23c0,0-49.06,127.57-178.59,112.85c0,0-202.14-4.91-130.51-263.96h95.18
	c0,0-71.63,163.87,52.99,172.71c0,0,61.33,15.95,84.88-102.54L1187.8,351.29z"/>
<linearGradient id="SVGID_14_" gradientUnits="userSpaceOnUse" x1="2506.8655" y1="497.9354" x2="2874.2205" y2="497.9354">
	<stop  offset="0" style="stop-color:#8C1B13"/>
	<stop  offset="1" style="stop-color:#C2322A"/>
</linearGradient>
<path class="st13" d="M2535.15,352.52c24.36,0.79,65.94-1.04,94.73-1.04c-10.7,39.59-20.61,74.16-29.32,109.04
	c-9.47,37.9,8.57,74.23,42.27,87.48c39.8,15.64,83.79-4.95,96.37-46.65c12.98-43.04,41.02-149.8,41.02-149.8s-15.64-0.75,0,0
	c22.86,1.1,93.78,0,93.78,0s0.49-1.76,0,0c-17.36,62.3-31.94,135.75-55.6,195.57c-32.49,82.12-123.3,117.35-205.73,87.49
	c-79.23-28.7-122.71-115.82-99.64-199.62"/>
<g>
	<linearGradient id="SVGID_15_" gradientUnits="userSpaceOnUse" x1="257.7144" y1="437.1456" x2="400.604" y2="437.1456">
		<stop  offset="0" style="stop-color:#8C1B13"/>
		<stop  offset="1" style="stop-color:#C2322A"/>
	</linearGradient>
	<rect x="257.71" y="428.67" class="st14" width="142.89" height="16.95"/>
	<linearGradient id="SVGID_16_" gradientUnits="userSpaceOnUse" x1="230.6936" y1="437.1456" x2="247.6382" y2="437.1456">
		<stop  offset="0" style="stop-color:#8C1B13"/>
		<stop  offset="1" style="stop-color:#C2322A"/>
	</linearGradient>
	<path class="st15" d="M239.17,445.62c4.68,0,8.47-3.79,8.47-8.47c0-4.68-3.79-8.47-8.47-8.47c-4.68,0-8.47,3.79-8.47,8.47
		C230.69,441.83,234.49,445.62,239.17,445.62z"/>
	<linearGradient id="SVGID_17_" gradientUnits="userSpaceOnUse" x1="207.2888" y1="470.1772" x2="224.2344" y2="470.1772">
		<stop  offset="0" style="stop-color:#8C1B13"/>
		<stop  offset="1" style="stop-color:#C2322A"/>
	</linearGradient>
	<path class="st16" d="M215.76,461.7c-4.68,0-8.47,3.79-8.47,8.47c0,4.68,3.79,8.47,8.47,8.47s8.47-3.79,8.47-8.47
		C224.23,465.5,220.44,461.7,215.76,461.7z"/>
	<linearGradient id="SVGID_18_" gradientUnits="userSpaceOnUse" x1="209.8503" y1="536.2408" x2="226.795" y2="536.2408">
		<stop  offset="0" style="stop-color:#8C1B13"/>
		<stop  offset="1" style="stop-color:#C2322A"/>
	</linearGradient>
	<path class="st17" d="M218.32,527.77c-4.68,0-8.47,3.79-8.47,8.47c0,4.68,3.79,8.47,8.47,8.47c4.68,0,8.47-3.79,8.47-8.47
		C226.79,531.56,223,527.77,218.32,527.77z"/>
	<linearGradient id="SVGID_19_" gradientUnits="userSpaceOnUse" x1="227.3302" y1="569.2729" x2="244.2749" y2="569.2729">
		<stop  offset="0" style="stop-color:#8C1B13"/>
		<stop  offset="1" style="stop-color:#C2322A"/>
	</linearGradient>
	<path class="st18" d="M235.8,560.8c-4.68,0-8.47,3.79-8.47,8.47c0,4.68,3.79,8.47,8.47,8.47c4.68,0,8.47-3.79,8.47-8.47
		C244.27,564.59,240.48,560.8,235.8,560.8z"/>
	<linearGradient id="SVGID_20_" gradientUnits="userSpaceOnUse" x1="235.2258" y1="470.1772" x2="383.6116" y2="470.1772">
		<stop  offset="0" style="stop-color:#8C1B13"/>
		<stop  offset="1" style="stop-color:#C2322A"/>
	</linearGradient>
	<rect x="235.23" y="461.7" class="st19" width="148.39" height="16.94"/>
	<linearGradient id="SVGID_21_" gradientUnits="userSpaceOnUse" x1="280.0819" y1="503.2093" x2="368.0147" y2="503.2093">
		<stop  offset="0" style="stop-color:#8C1B13"/>
		<stop  offset="1" style="stop-color:#C2322A"/>
	</linearGradient>
	<rect x="280.08" y="494.74" class="st20" width="87.93" height="16.94"/>
	<linearGradient id="SVGID_22_" gradientUnits="userSpaceOnUse" x1="235.0387" y1="536.2408" x2="353.6552" y2="536.2408">
		<stop  offset="0" style="stop-color:#8C1B13"/>
		<stop  offset="1" style="stop-color:#C2322A"/>
	</linearGradient>
	<rect x="235.04" y="527.77" class="st21" width="118.62" height="16.95"/>
	<linearGradient id="SVGID_23_" gradientUnits="userSpaceOnUse" x1="250.0001" y1="569.2729" x2="335.6425" y2="569.2729">
		<stop  offset="0" style="stop-color:#8C1B13"/>
		<stop  offset="1" style="stop-color:#C2322A"/>
	</linearGradient>
	<rect x="250" y="560.8" class="st22" width="85.64" height="16.95"/>
	<g>
		<linearGradient id="SVGID_24_" gradientUnits="userSpaceOnUse" x1="584.6415" y1="213.0673" x2="768.3451" y2="213.0673">
			<stop  offset="0" style="stop-color:#8C1B13"/>
			<stop  offset="1" style="stop-color:#C2322A"/>
		</linearGradient>
		<path style="fill-rule:evenodd;clip-rule:evenodd;fill:url(#SVGID_24_);" d="M752.86,267.95
			c-112.15-34.36-168.22-51.54-168.22-51.54c7.73-39.09,44.91-65.11,84.28-59c39.37,6.11,66.92,42.18,62.44,81.77
			c20.24,7.38,30.36,11.07,30.36,11.07c3.63,1.29,6.19,4.56,6.58,8.4c0.38,3.83-1.47,7.55-4.77,9.54
			C760.23,270.17,756.08,270.08,752.86,267.95z"/>
		<linearGradient id="SVGID_25_" gradientUnits="userSpaceOnUse" x1="587.7761" y1="266.9959" x2="719.9776" y2="266.9959">
			<stop  offset="0" style="stop-color:#8C1B13"/>
			<stop  offset="1" style="stop-color:#C2322A"/>
		</linearGradient>
		<path style="fill-rule:evenodd;clip-rule:evenodd;fill:url(#SVGID_25_);" d="M719.98,271.43c-17.64,26.94-51.02,38.88-81.74,29.25
			c-30.72-9.63-51.32-38.49-50.43-70.67C675.92,257.62,719.98,271.43,719.98,271.43z"/>
		<linearGradient id="SVGID_26_" gradientUnits="userSpaceOnUse" x1="245.9638" y1="521.7574" x2="763.9337" y2="521.7574">
			<stop  offset="0" style="stop-color:#8C1B13"/>
			<stop  offset="1" style="stop-color:#C2322A"/>
		</linearGradient>
		<path style="fill-rule:evenodd;clip-rule:evenodd;fill:url(#SVGID_26_);" d="M664.65,748.9c0,0-9.28-37.94-27.83-113.83
			c0,0-46.09-25.03-136.18-78.66c2.11-3.56-23.61,39.87-75.05,126.72c0,0-51.44-0.42-154.3-1.27
			c-16.36-6.08-26.66-22.32-25.18-39.71c1.47-17.39,14.36-31.67,31.51-34.91l75.29-2.21h24.3l68.58-163.47l49.37-98.03
			c0,0-12.23,0-36.68,0c0,0-28.04,20.87-84.11,62.61c-14.24,5.29-30.25,2.16-41.45-8.11c-11.2-10.27-15.71-25.94-11.67-40.58
			c0,0,39.21-28.67,117.62-86.01c61.56-1.69,92.33-2.53,92.33-2.53c101.76,32.24,140.97,78.2,117.63,137.87l-0.69,1.27h90.63
			c13.84,0,25.17,11.32,25.17,25.17v17.97c0,13.84-11.32,25.17-25.17,25.17h-127.6c-67.57-9.25-83.68-41.88-48.32-97.9
			c-58.89,80.45-5.3,102.51,43.45,106.89l-11.22,20.72c61.55,37.94,92.33,56.92,92.33,56.92c27.55,21.17,43.71,132.2,54.39,173.28
			c-0.73,18.95-14.7,34.77-33.41,37.83C689.68,777.15,671.39,766.62,664.65,748.9L664.65,748.9z M611.16,476.34
			c-1.42-0.07-1.51,0.76-1.05,1.95L611.16,476.34z"/>
		<linearGradient id="SVGID_27_" gradientUnits="userSpaceOnUse" x1="676.6643" y1="435.8656" x2="834.77" y2="435.8656">
			<stop  offset="0" style="stop-color:#8C1B13"/>
			<stop  offset="1" style="stop-color:#C2322A"/>
		</linearGradient>
		<path style="fill-rule:evenodd;clip-rule:evenodd;fill:url(#SVGID_27_);" d="M676.66,355.55l70.12,0.19l0.34,9.83l12.09-0.38
			l-0.33-9.42l68.9,0.19l6.98,160.22H676.66v-26.22h62.1c21.36,0,38.79-17.43,38.79-38.79V433.2c0-21.36-17.43-38.79-38.79-38.79
			h-62.1V355.55z"/>
		<linearGradient id="SVGID_28_" gradientUnits="userSpaceOnUse" x1="830.9089" y1="414.7252" x2="855.6773" y2="414.7252">
			<stop  offset="0" style="stop-color:#8C1B13"/>
			<stop  offset="1" style="stop-color:#C2322A"/>
		</linearGradient>
		<polygon style="fill-rule:evenodd;clip-rule:evenodd;fill:url(#SVGID_28_);" points="854.73,320.07 830.91,351.8 831.77,351.8 
			838.64,509.38 855.68,479.44 		"/>
		<linearGradient id="SVGID_29_" gradientUnits="userSpaceOnUse" x1="683.9812" y1="335.9791" x2="850.7551" y2="335.9791">
			<stop  offset="0" style="stop-color:#8C1B13"/>
			<stop  offset="1" style="stop-color:#C2322A"/>
		</linearGradient>
		<path style="fill-rule:evenodd;clip-rule:evenodd;fill:url(#SVGID_29_);" d="M734.25,322.92l-50.27,28.49l62.74,0.17l26.66-29.5
			L734.25,322.92L734.25,322.92z M760.64,351.61l25.56-29.92l64.55-1.52l-23.74,31.62L760.64,351.61z"/>
	</g>
</g>
</svg>
